<svg width="39" height="49" viewBox="0 0 39 49" fill="none" xmlns="http://www.w3.org/2000/svg">
<path d="M19.5 9.79997V-3.05176e-05L7.3125 12.25L19.5 24.5V14.7C23.3788 14.7 27.0987 16.2487 29.8414 19.0055C32.5842 21.7623 34.125 25.5013 34.125 29.4C34.125 33.2987 32.5842 37.0377 29.8414 39.7944C27.0987 42.5512 23.3788 44.1 19.5 44.1C15.6212 44.1 11.9013 42.5512 9.15856 39.7944C6.41584 37.0377 4.875 33.2987 4.875 29.4H0C0 34.5982 2.05446 39.5835 5.71142 43.2593C9.36838 46.935 14.3283 49 19.5 49C24.6717 49 29.6316 46.935 33.2886 43.2593C36.9455 39.5835 39 34.5982 39 29.4C39 24.2017 36.9455 19.2164 33.2886 15.5407C29.6316 11.865 24.6717 9.79997 19.5 9.79997Z" fill="white"/>
</svg>
